# xmcd CD database file
#
# Track frame offsets:
#	150
#	26311
#	28245
#	47466
#	49062
#	79895
#	80461
#	111116
#	134724
#	136197
#	155017
#
# Disc length: 2092 seconds
#
# Revision: 0
# Processed by: cddbd v1.5.2PL0 Copyright (c) Steve Scherf et al.
# Submitted via: CDex 2.00
#
DISCID=8c082a0b
DTITLE=Mike Gibbs - Festival 69 CD1
DYEAR=2018
DGENRE=Jazz
TTITLE0=General Mojo's Well Laid Plan
TTITLE1=Announcement
TTITLE2=Arise, her eyes
TTITLE3=Announcement
TTITLE4=Ballet
TTITLE5=Announcement
TTITLE6=And on the Third Day
TTITLE7=Chega de Saudade - vibes solo
TTITLE8=Announcement
TTITLE9=Portsmouth Configurations
TTITLE10=Announcement
EXTD=YEAR: 2018
EXTT0=
EXTT1=
EXTT2=
EXTT3=
EXTT4=
EXTT5=
EXTT6=
EXTT7=
EXTT8=
EXTT9=
EXTT10=
PLAYORDER=
